<svg width="104" height="35" viewBox="0 0 104 35" fill="none" xmlns="http://www.w3.org/2000/svg">
<path d="M0.47816 16.701C0.356723 16.701 0.242875 16.655 0.136617 16.5631C0.0455391 16.4558 0 16.3409 0 16.2183C0 16.1417 0.00758984 16.0727 0.0227695 16.0114L5.37361 1.25525C5.41915 1.0867 5.51022 0.94113 5.64684 0.818545C5.79864 0.680637 6.00356 0.611683 6.26162 0.611683H9.63151C9.88956 0.611683 10.0869 0.680637 10.2235 0.818545C10.3753 0.94113 10.474 1.0867 10.5195 1.25525L15.8476 16.0114C15.8779 16.0727 15.8931 16.1417 15.8931 16.2183C15.8931 16.3409 15.84 16.4558 15.7337 16.5631C15.6427 16.655 15.5288 16.701 15.3922 16.701H12.5915C12.3639 16.701 12.1893 16.6473 12.0678 16.5401C11.9616 16.4175 11.8933 16.3102 11.8629 16.2183L10.9749 13.8738H4.89545L4.03021 16.2183C3.99985 16.3102 3.93154 16.4175 3.82528 16.5401C3.71902 16.6473 3.53687 16.701 3.27881 16.701H0.47816ZM5.829 10.5641H10.0641L7.92379 4.4961L5.829 10.5641Z" fill="#5271FF"/>
<path d="M17.4601 16.701C17.2932 16.701 17.1565 16.6473 17.0503 16.5401C16.944 16.4328 16.8909 16.2949 16.8909 16.1263V1.1863C16.8909 1.01775 16.944 0.879837 17.0503 0.772576C17.1565 0.665314 17.2932 0.611683 17.4601 0.611683H23.3802C24.8678 0.611683 26.1353 0.856853 27.1827 1.34719C28.2301 1.82221 29.0346 2.52707 29.5963 3.46178C30.1579 4.38117 30.4615 5.52274 30.5071 6.8865C30.5223 7.56072 30.5298 8.15066 30.5298 8.65632C30.5298 9.16199 30.5223 9.74427 30.5071 10.4032C30.4464 11.8282 30.1428 13.0081 29.5963 13.9428C29.065 14.8775 28.2832 15.5747 27.251 16.0344C26.234 16.4788 24.9817 16.701 23.4941 16.701H17.4601ZM20.9666 13.3912H23.3802C24.0329 13.3912 24.5718 13.2916 24.9968 13.0924C25.4371 12.8778 25.7634 12.5484 25.9759 12.104C26.2036 11.6597 26.3251 11.0774 26.3402 10.3572C26.3706 9.91282 26.3858 9.51442 26.3858 9.16199C26.401 8.80956 26.401 8.45712 26.3858 8.10469C26.3858 7.75226 26.3706 7.36152 26.3402 6.93247C26.3099 5.8905 26.0367 5.132 25.5205 4.65699C25.0196 4.16665 24.2682 3.92148 23.2664 3.92148H20.9666V13.3912Z" fill="#5271FF"/>
<path d="M36.4576 16.701C36.1995 16.701 35.9946 16.632 35.8428 16.4941C35.691 16.3562 35.5847 16.1953 35.524 16.0114L30.879 1.30122C30.8487 1.22461 30.8335 1.15565 30.8335 1.09436C30.8335 0.971776 30.879 0.864515 30.9701 0.772576C31.0764 0.665314 31.1978 0.611683 31.3344 0.611683H34.1578C34.4007 0.611683 34.5905 0.680637 34.7271 0.818545C34.8637 0.956453 34.9472 1.0867 34.9775 1.20928L38.188 11.8282L41.4213 1.20928C41.4669 1.0867 41.5504 0.956453 41.6718 0.818545C41.8084 0.680637 41.9981 0.611683 42.241 0.611683H45.0644C45.2011 0.611683 45.3149 0.665314 45.406 0.772576C45.5122 0.864515 45.5654 0.971776 45.5654 1.09436C45.5654 1.15565 45.5502 1.22461 45.5198 1.30122L40.8749 16.0114C40.8141 16.1953 40.7079 16.3562 40.5561 16.4941C40.4195 16.632 40.2145 16.701 39.9413 16.701H36.4576Z" fill="#5271FF"/>
<path d="M44.716 16.701C44.5945 16.701 44.4807 16.655 44.3744 16.5631C44.2833 16.4558 44.2378 16.3409 44.2378 16.2183C44.2378 16.1417 44.2454 16.0727 44.2606 16.0114L49.6114 1.25525C49.657 1.0867 49.748 0.94113 49.8846 0.818545C50.0364 0.680637 50.2414 0.611683 50.4994 0.611683H53.8693C54.1274 0.611683 54.3247 0.680637 54.4613 0.818545C54.6131 0.94113 54.7118 1.0867 54.7573 1.25525L60.0854 16.0114C60.1158 16.0727 60.1309 16.1417 60.1309 16.2183C60.1309 16.3409 60.0778 16.4558 59.9715 16.5631C59.8805 16.655 59.7666 16.701 59.63 16.701H56.8294C56.6017 16.701 56.4271 16.6473 56.3057 16.5401C56.1994 16.4175 56.1311 16.3102 56.1007 16.2183L55.2127 13.8738H49.1333L48.268 16.2183C48.2377 16.3102 48.1693 16.4175 48.0631 16.5401C47.9568 16.6473 47.7747 16.701 47.5166 16.701H44.716ZM50.0668 10.5641H54.3019L52.1616 4.4961L50.0668 10.5641Z" fill="#5271FF"/>
<path d="M61.6979 16.701C61.531 16.701 61.3943 16.6473 61.2881 16.5401C61.1818 16.4328 61.1287 16.2949 61.1287 16.1263V1.1863C61.1287 1.01775 61.1818 0.879837 61.2881 0.772576C61.3943 0.665314 61.531 0.611683 61.6979 0.611683H64.1115C64.3696 0.611683 64.5517 0.672975 64.658 0.79556C64.7794 0.902822 64.8553 0.987099 64.8857 1.04839L70.4414 9.8975V1.1863C70.4414 1.01775 70.4946 0.879837 70.6008 0.772576C70.7071 0.665314 70.8437 0.611683 71.0107 0.611683H73.743C73.91 0.611683 74.0466 0.665314 74.1529 0.772576C74.2591 0.879837 74.3123 1.01775 74.3123 1.1863V16.1263C74.3123 16.2796 74.2591 16.4175 74.1529 16.5401C74.0466 16.6473 73.91 16.701 73.743 16.701H71.3067C71.0638 16.701 70.8816 16.6397 70.7602 16.5171C70.654 16.3945 70.5856 16.3102 70.5553 16.2643L64.9995 7.75992V16.1263C64.9995 16.2949 64.9464 16.4328 64.8401 16.5401C64.7339 16.6473 64.5973 16.701 64.4303 16.701H61.6979Z" fill="#5271FF"/>
<path d="M83.2322 16.9308C81.7901 16.9308 80.553 16.6933 79.5208 16.2183C78.5037 15.7433 77.7068 15.0461 77.13 14.1267C76.5683 13.2073 76.2571 12.0657 76.1964 10.702C76.1813 10.0737 76.1737 9.3995 76.1737 8.67931C76.1737 7.95912 76.1813 7.26958 76.1964 6.61069C76.2571 5.27758 76.5759 4.15132 77.1527 3.23194C77.7296 2.29723 78.5341 1.59236 79.5663 1.11735C80.5985 0.627006 81.8205 0.381836 83.2322 0.381836C84.2341 0.381836 85.16 0.512083 86.0101 0.772576C86.8602 1.01775 87.604 1.3855 88.2415 1.87584C88.8791 2.35086 89.3724 2.93314 89.7215 3.62268C90.0858 4.29689 90.2756 5.06305 90.2908 5.92115C90.306 6.05905 90.2604 6.17398 90.1542 6.26592C90.0631 6.35785 89.9492 6.40382 89.8126 6.40382H86.7387C86.5414 6.40382 86.3896 6.36552 86.2833 6.2889C86.1771 6.19696 86.086 6.03607 86.0101 5.80622C85.7976 4.9941 85.4484 4.44246 84.9627 4.15133C84.4921 3.84486 83.9077 3.69163 83.2094 3.69163C82.3746 3.69163 81.7142 3.92914 81.2285 4.40416C80.7427 4.86385 80.4771 5.63767 80.4316 6.72561C80.386 7.98211 80.386 9.26925 80.4316 10.587C80.4771 11.675 80.7427 12.4565 81.2285 12.9315C81.7142 13.3912 82.3746 13.621 83.2094 13.621C83.9077 13.621 84.4997 13.4678 84.9855 13.1613C85.4712 12.8549 85.8128 12.3032 86.0101 11.5064C86.0708 11.2766 86.1543 11.1233 86.2606 11.0467C86.382 10.9548 86.5414 10.9088 86.7387 10.9088H89.8126C89.9492 10.9088 90.0631 10.9548 90.1542 11.0467C90.2604 11.1387 90.306 11.2536 90.2908 11.3915C90.2756 12.2496 90.0858 13.0234 89.7215 13.713C89.3724 14.3872 88.8791 14.9695 88.2415 15.4598C87.604 15.9348 86.8602 16.3026 86.0101 16.5631C85.16 16.8082 84.2341 16.9308 83.2322 16.9308Z" fill="#5271FF"/>
<path d="M92.4573 16.701C92.2903 16.701 92.1537 16.6473 92.0474 16.5401C91.9411 16.4328 91.888 16.2949 91.888 16.1263V1.1863C91.888 1.01775 91.9411 0.879837 92.0474 0.772576C92.1537 0.665314 92.2903 0.611683 92.4573 0.611683H103.091C103.258 0.611683 103.394 0.665314 103.5 0.772576C103.607 0.879837 103.66 1.01775 103.66 1.1863V3.34686C103.66 3.51541 103.607 3.65332 103.5 3.76059C103.394 3.86785 103.258 3.92148 103.091 3.92148H95.8271V7.02441H102.59C102.757 7.02441 102.893 7.0857 103 7.20829C103.106 7.31555 103.159 7.45346 103.159 7.62201V9.62168C103.159 9.77491 103.106 9.91282 103 10.0354C102.893 10.1427 102.757 10.1963 102.59 10.1963H95.8271V13.3912H103.273C103.44 13.3912 103.576 13.4448 103.683 13.5521C103.789 13.6593 103.842 13.7972 103.842 13.9658V16.1263C103.842 16.2949 103.789 16.4328 103.683 16.5401C103.576 16.6473 103.44 16.701 103.273 16.701H92.4573Z" fill="#5271FF"/>
<path d="M0.636306 34.4277C0.510605 34.4277 0.403759 34.3897 0.315768 34.3135C0.240347 34.2247 0.202637 34.1169 0.202637 33.99V21.5612C0.202637 21.4216 0.240347 21.3138 0.315768 21.2376C0.403759 21.1488 0.510605 21.1044 0.636306 21.1044H1.57906C1.72991 21.1044 1.84304 21.1425 1.91846 21.2186C1.99388 21.2947 2.03787 21.3582 2.05044 21.4089L6.04774 29.0984L10.0639 21.4089C10.089 21.3582 10.133 21.2947 10.1959 21.2186C10.2713 21.1425 10.3844 21.1044 10.5353 21.1044H11.4592C11.5974 21.1044 11.7043 21.1488 11.7797 21.2376C11.8677 21.3138 11.9117 21.4216 11.9117 21.5612V33.99C11.9117 34.1169 11.8677 34.2247 11.7797 34.3135C11.7043 34.3897 11.5974 34.4277 11.4592 34.4277H10.5353C10.4096 34.4277 10.3027 34.3897 10.2147 34.3135C10.1393 34.2247 10.1016 34.1169 10.1016 33.99V24.6256L6.95279 30.8304C6.90251 30.9573 6.82709 31.0588 6.72653 31.135C6.62597 31.1984 6.50026 31.2301 6.34942 31.2301H5.76491C5.6015 31.2301 5.46952 31.1984 5.36896 31.135C5.28096 31.0588 5.20554 30.9573 5.14269 30.8304L1.99388 24.6256V33.99C1.99388 34.1169 1.94988 34.2247 1.86189 34.3135C1.78647 34.3897 1.68591 34.4277 1.56021 34.4277H0.636306Z" fill="white"/>
<path d="M19.2453 34.6181C18.1769 34.6181 17.2593 34.4341 16.4925 34.0661C15.7257 33.6854 15.1349 33.1081 14.7201 32.3341C14.3053 31.5474 14.0727 30.564 14.0224 29.3839C14.0099 28.8256 14.0036 28.2927 14.0036 27.7851C14.0036 27.2649 14.0099 26.7256 14.0224 26.1673C14.0727 24.9999 14.3116 24.0292 14.7389 23.2552C15.1789 22.4685 15.7823 21.8848 16.549 21.5041C17.3284 21.1107 18.2272 20.9141 19.2453 20.9141C20.2761 20.9141 21.1748 21.1107 21.9416 21.5041C22.721 21.8848 23.3306 22.4685 23.7706 23.2552C24.2105 24.0292 24.4494 24.9999 24.4871 26.1673C24.5122 26.7256 24.5248 27.2649 24.5248 27.7851C24.5248 28.2927 24.5122 28.8256 24.4871 29.3839C24.4494 30.564 24.2168 31.5474 23.7894 32.3341C23.3746 33.1081 22.7838 33.6854 22.017 34.0661C21.2503 34.4341 20.3264 34.6181 19.2453 34.6181ZM19.2453 33.0002C20.2132 33.0002 20.9989 32.7084 21.6022 32.1247C22.2182 31.541 22.5513 30.5957 22.6016 29.2887C22.6267 28.7177 22.6393 28.2102 22.6393 27.7661C22.6393 27.3093 22.6267 26.8017 22.6016 26.2434C22.5764 25.3679 22.413 24.6573 22.1113 24.1117C21.8222 23.566 21.4325 23.1663 20.9423 22.9126C20.4521 22.6588 19.8864 22.5319 19.2453 22.5319C18.6294 22.5319 18.0763 22.6588 17.5861 22.9126C17.0958 23.1663 16.6999 23.566 16.3982 24.1117C16.1091 24.6573 15.9457 25.3679 15.908 26.2434C15.8954 26.8017 15.8891 27.3093 15.8891 27.7661C15.8891 28.2102 15.8954 28.7177 15.908 29.2887C15.9582 30.5957 16.2914 31.541 16.9073 32.1247C17.5232 32.7084 18.3026 33.0002 19.2453 33.0002Z" fill="white"/>
<path d="M27.0468 34.4277C26.9085 34.4277 26.8017 34.3897 26.7263 34.3135C26.6508 34.2247 26.6131 34.1169 26.6131 33.99V21.5612C26.6131 21.4216 26.6508 21.3138 26.7263 21.2376C26.8017 21.1488 26.9085 21.1044 27.0468 21.1044H31.6475C33.0679 21.1044 34.1929 21.4407 35.0225 22.1132C35.8522 22.7857 36.267 23.7818 36.267 25.1014C36.267 26.0784 36.0219 26.8778 35.5316 27.4996C35.054 28.1087 34.4003 28.5337 33.5707 28.7748L36.4744 33.8377C36.5121 33.9138 36.531 33.9836 36.531 34.0471C36.531 34.1486 36.487 34.2374 36.399 34.3135C36.3236 34.3897 36.2356 34.4277 36.135 34.4277H35.23C35.0163 34.4277 34.8591 34.3706 34.7586 34.2564C34.658 34.1422 34.57 34.028 34.4946 33.9138L31.7606 29.0794H28.4609V33.99C28.4609 34.1169 28.417 34.2247 28.329 34.3135C28.2535 34.3897 28.1467 34.4277 28.0084 34.4277H27.0468ZM28.4609 27.4615H31.5721C32.5148 27.4615 33.2187 27.2649 33.6838 26.8715C34.1489 26.4655 34.3815 25.8691 34.3815 25.0824C34.3815 24.3083 34.1489 23.7183 33.6838 23.3123C33.2313 22.9062 32.5274 22.7032 31.5721 22.7032H28.4609V27.4615Z" fill="white"/>
<path d="M41.4797 34.4277C41.354 34.4277 41.2472 34.3897 41.1592 34.3135C41.0837 34.2247 41.046 34.1169 41.046 33.99V22.7984H37.4258C37.3001 22.7984 37.1933 22.7603 37.1053 22.6842C37.0299 22.5953 36.9922 22.4875 36.9922 22.3606V21.5612C36.9922 21.4216 37.0299 21.3138 37.1053 21.2376C37.1933 21.1488 37.3001 21.1044 37.4258 21.1044H46.514C46.6523 21.1044 46.7592 21.1488 46.8346 21.2376C46.9226 21.3138 46.9666 21.4216 46.9666 21.5612V22.3606C46.9666 22.4875 46.9226 22.5953 46.8346 22.6842C46.7592 22.7603 46.6523 22.7984 46.514 22.7984H42.9127V33.99C42.9127 34.1169 42.8687 34.2247 42.7807 34.3135C42.7053 34.3897 42.5984 34.4277 42.4602 34.4277H41.4797Z" fill="white"/>
<path d="M52.9333 34.6181C51.8272 34.6181 50.8844 34.4087 50.1051 33.99C49.3383 33.5712 48.7475 32.9812 48.3327 32.2199C47.9304 31.4585 47.7042 30.564 47.6539 29.5362C47.6413 28.9779 47.635 28.3878 47.635 27.7661C47.635 27.1316 47.6413 26.5289 47.6539 25.9579C47.7042 24.9301 47.9304 24.0419 48.3327 23.2932C48.7475 22.5446 49.3446 21.9609 50.1239 21.5422C50.9033 21.1234 51.8397 20.9141 52.9333 20.9141C53.8258 20.9141 54.5989 21.041 55.2525 21.2947C55.9062 21.5485 56.4404 21.8721 56.8552 22.2654C57.2826 22.6461 57.5969 23.0458 57.798 23.4645C58.0117 23.8833 58.1248 24.2512 58.1374 24.5685C58.1499 24.6827 58.1185 24.7778 58.0431 24.854C57.9677 24.9174 57.8671 24.9491 57.7414 24.9491H56.629C56.5033 24.9491 56.409 24.9238 56.3461 24.873C56.2958 24.8222 56.2456 24.7334 56.1953 24.6065C56.0822 24.2766 55.8936 23.9531 55.6296 23.6358C55.3782 23.3186 55.0326 23.0585 54.5926 22.8555C54.1652 22.6398 53.6121 22.5319 52.9333 22.5319C51.9403 22.5319 51.1358 22.8047 50.5199 23.3503C49.9165 23.896 49.5897 24.7969 49.5394 26.0531C49.5017 27.1824 49.5017 28.3117 49.5394 29.441C49.5897 30.7099 49.9228 31.6235 50.5387 32.1818C51.1547 32.7274 51.9592 33.0002 52.9522 33.0002C53.6184 33.0002 54.2092 32.8797 54.7246 32.6386C55.2525 32.3848 55.6673 31.9978 55.969 31.4776C56.2707 30.9573 56.4216 30.2975 56.4216 29.4981V28.6987H53.5933C53.4676 28.6987 53.3607 28.6606 53.2727 28.5845C53.1973 28.4957 53.1596 28.3815 53.1596 28.2419V27.6328C53.1596 27.4933 53.1973 27.3854 53.2727 27.3093C53.3607 27.2204 53.4676 27.176 53.5933 27.176H57.8545C57.9928 27.176 58.0997 27.2204 58.1751 27.3093C58.2505 27.3854 58.2882 27.4933 58.2882 27.6328V29.46C58.2882 30.5005 58.0745 31.4078 57.6471 32.1818C57.2323 32.9558 56.6227 33.5585 55.8182 33.99C55.0137 34.4087 54.0521 34.6181 52.9333 34.6181Z" fill="white"/>
<path d="M59.1743 34.4277C59.0737 34.4277 58.9857 34.3897 58.9103 34.3135C58.8349 34.2374 58.7972 34.1486 58.7972 34.0471C58.7972 33.9836 58.8034 33.9138 58.816 33.8377L63.4921 21.5231C63.5424 21.3962 63.6115 21.2947 63.6995 21.2186C63.7875 21.1425 63.9195 21.1044 64.0955 21.1044H65.3776C65.541 21.1044 65.6667 21.1425 65.7547 21.2186C65.8553 21.2947 65.9307 21.3962 65.981 21.5231L70.6382 33.8377C70.6633 33.9138 70.6759 33.9836 70.6759 34.0471C70.6759 34.1486 70.6382 34.2374 70.5628 34.3135C70.4874 34.3897 70.3994 34.4277 70.2988 34.4277H69.3372C69.1864 34.4277 69.0732 34.3897 68.9978 34.3135C68.935 34.2374 68.891 34.1676 68.8658 34.1042L67.8288 31.4014H61.6443L60.6073 34.1042C60.5947 34.1676 60.5507 34.2374 60.4753 34.3135C60.3998 34.3897 60.2867 34.4277 60.1359 34.4277H59.1743ZM62.1911 29.7646H67.282L64.7365 23.0077L62.1911 29.7646Z" fill="white"/>
<path d="M76.5819 34.6181C75.4757 34.6181 74.5329 34.4087 73.7536 33.99C72.9868 33.5712 72.396 32.9812 71.9812 32.2199C71.5789 31.4585 71.3527 30.564 71.3024 29.5362C71.2898 28.9779 71.2835 28.3878 71.2835 27.7661C71.2835 27.1316 71.2898 26.5289 71.3024 25.9579C71.3527 24.9301 71.5789 24.0419 71.9812 23.2932C72.396 22.5446 72.9931 21.9609 73.7724 21.5422C74.5518 21.1234 75.4883 20.9141 76.5819 20.9141C77.4743 20.9141 78.2474 21.041 78.901 21.2947C79.5547 21.5485 80.0889 21.8721 80.5037 22.2654C80.9311 22.6461 81.2454 23.0458 81.4465 23.4645C81.6602 23.8833 81.7733 24.2512 81.7859 24.5685C81.7985 24.6827 81.767 24.7778 81.6916 24.854C81.6162 24.9174 81.5156 24.9491 81.3899 24.9491H80.2775C80.1518 24.9491 80.0575 24.9238 79.9946 24.873C79.9444 24.8222 79.8941 24.7334 79.8438 24.6065C79.7307 24.2766 79.5421 23.9531 79.2781 23.6358C79.0267 23.3186 78.6811 23.0585 78.2411 22.8555C77.8137 22.6398 77.2606 22.5319 76.5819 22.5319C75.5888 22.5319 74.7843 22.8047 74.1684 23.3503C73.565 23.896 73.2382 24.7969 73.1879 26.0531C73.1502 27.1824 73.1502 28.3117 73.1879 29.441C73.2382 30.7099 73.5713 31.6235 74.1872 32.1818C74.8032 32.7274 75.6077 33.0002 76.6007 33.0002C77.2669 33.0002 77.8577 32.8797 78.3731 32.6386C78.901 32.3848 79.3159 31.9978 79.6175 31.4776C79.9192 30.9573 80.0701 30.2975 80.0701 29.4981V28.6987H77.2418C77.1161 28.6987 77.0092 28.6606 76.9212 28.5845C76.8458 28.4957 76.8081 28.3815 76.8081 28.2419V27.6328C76.8081 27.4933 76.8458 27.3854 76.9212 27.3093C77.0092 27.2204 77.1161 27.176 77.2418 27.176H81.5031C81.6413 27.176 81.7482 27.2204 81.8236 27.3093C81.899 27.3854 81.9367 27.4933 81.9367 27.6328V29.46C81.9367 30.5005 81.723 31.4078 81.2956 32.1818C80.8808 32.9558 80.2712 33.5585 79.4667 33.99C78.6622 34.4087 77.7006 34.6181 76.5819 34.6181Z" fill="white"/>
<path d="M84.4004 34.4277C84.2621 34.4277 84.1553 34.3897 84.0799 34.3135C84.0045 34.2247 83.9667 34.1169 83.9667 33.99V21.5612C83.9667 21.4216 84.0045 21.3138 84.0799 21.2376C84.1553 21.1488 84.2621 21.1044 84.4004 21.1044H92.1876C92.3259 21.1044 92.4327 21.1488 92.5081 21.2376C92.5836 21.3138 92.6213 21.4216 92.6213 21.5612V22.2845C92.6213 22.424 92.5836 22.5319 92.5081 22.608C92.4327 22.6842 92.3259 22.7222 92.1876 22.7222H85.7768V26.8905H91.7728C91.9111 26.8905 92.0179 26.9349 92.0933 27.0238C92.1687 27.0999 92.2065 27.2078 92.2065 27.3473V28.0516C92.2065 28.1785 92.1687 28.2863 92.0933 28.3751C92.0179 28.4513 91.9111 28.4893 91.7728 28.4893H85.7768V32.8099H92.3384C92.4767 32.8099 92.5836 32.848 92.659 32.9241C92.7344 33.0002 92.7721 33.1081 92.7721 33.2477V33.99C92.7721 34.1169 92.7344 34.2247 92.659 34.3135C92.5836 34.3897 92.4767 34.4277 92.3384 34.4277H84.4004Z" fill="white"/>
<path d="M98.9839 34.6181C97.8903 34.6181 96.9726 34.4531 96.231 34.1232C95.4894 33.7806 94.9174 33.3428 94.5152 32.8099C94.1255 32.2643 93.9181 31.6869 93.893 31.0779C93.893 30.9764 93.9307 30.8875 94.0061 30.8114C94.0941 30.7226 94.1946 30.6782 94.3078 30.6782H95.2694C95.4202 30.6782 95.5334 30.7162 95.6088 30.7924C95.6842 30.8685 95.7345 30.9573 95.7596 31.0588C95.8225 31.3634 95.9733 31.6679 96.2122 31.9724C96.4636 32.2643 96.8092 32.5117 97.2492 32.7147C97.7017 32.9051 98.2799 33.0002 98.9839 33.0002C100.065 33.0002 100.857 32.8099 101.36 32.4292C101.875 32.0359 102.133 31.5156 102.133 30.8685C102.133 30.4244 101.994 30.0691 101.718 29.8026C101.454 29.5235 101.045 29.276 100.492 29.0603C99.9392 28.8446 99.2227 28.6099 98.3428 28.3561C97.4252 28.0896 96.6647 27.7978 96.0613 27.4806C95.4579 27.1633 95.0054 26.77 94.7037 26.3005C94.4146 25.831 94.2701 25.2346 94.2701 24.5114C94.2701 23.8262 94.4523 23.2171 94.8169 22.6842C95.1814 22.1385 95.7031 21.7071 96.3819 21.3899C97.0732 21.0727 97.9091 20.9141 98.8896 20.9141C99.6689 20.9141 100.348 21.0219 100.926 21.2376C101.517 21.4407 102.007 21.7198 102.397 22.0751C102.786 22.4177 103.082 22.792 103.283 23.1981C103.484 23.5914 103.591 23.9784 103.603 24.3591C103.603 24.4479 103.572 24.5367 103.509 24.6256C103.446 24.7017 103.346 24.7398 103.207 24.7398H102.208C102.12 24.7398 102.026 24.7144 101.925 24.6636C101.837 24.6129 101.768 24.5177 101.718 24.3781C101.642 23.8579 101.353 23.4201 100.851 23.0648C100.348 22.7095 99.6941 22.5319 98.8896 22.5319C98.0725 22.5319 97.4063 22.6905 96.8909 23.0077C96.3881 23.325 96.1367 23.8198 96.1367 24.4923C96.1367 24.9238 96.2561 25.2854 96.495 25.5772C96.7338 25.8564 97.1109 26.1038 97.6263 26.3195C98.1417 26.5352 98.8142 26.7636 99.6438 27.0047C100.649 27.2839 101.473 27.5821 102.114 27.8993C102.755 28.2038 103.226 28.5908 103.528 29.0603C103.842 29.5171 103.999 30.1072 103.999 30.8304C103.999 31.6298 103.792 32.315 103.377 32.886C102.962 33.4443 102.378 33.8758 101.624 34.1803C100.882 34.4721 100.002 34.6181 98.9839 34.6181Z" fill="white"/>
</svg>
