<svg width="116" height="39" viewBox="0 0 116 39" fill="none" xmlns="http://www.w3.org/2000/svg">
  <path d="M0.53073 18.4609C0.395942 18.4609 0.269577 18.4099 0.151637 18.3078C0.0505458 18.1888 0 18.0612 0 17.9252C0 17.8401 0.0084243 17.7636 0.0252729 17.6956L5.9644 1.3171C6.01495 1.13001 6.11604 0.968439 6.26767 0.832377C6.43616 0.679307 6.66362 0.602772 6.95004 0.602772H10.6904C10.9769 0.602772 11.1959 0.679307 11.3475 0.832377C11.516 0.968439 11.6255 1.13001 11.6761 1.3171L17.5899 17.6956C17.6236 17.7636 17.6405 17.8401 17.6405 17.9252C17.6405 18.0612 17.5815 18.1888 17.4636 18.3078C17.3625 18.4099 17.2361 18.4609 17.0845 18.4609H13.9759C13.7232 18.4609 13.5294 18.4014 13.3946 18.2823C13.2767 18.1463 13.2009 18.0272 13.1672 17.9252L12.1815 15.323H5.43367L4.4733 17.9252C4.4396 18.0272 4.36378 18.1463 4.24584 18.2823C4.1279 18.4014 3.92572 18.4609 3.63929 18.4609H0.53073ZM6.46986 11.6493H11.1706L8.79496 4.91424L6.46986 11.6493Z" fill="black"/>
  <path d="M19.3798 18.4609C19.1944 18.4609 19.0428 18.4014 18.9248 18.2823C18.8069 18.1633 18.7479 18.0102 18.7479 17.8231V1.24056C18.7479 1.05348 18.8069 0.900408 18.9248 0.781354C19.0428 0.6623 19.1944 0.602772 19.3798 0.602772H25.9507C27.6019 0.602772 29.0087 0.874896 30.1713 1.41914C31.3338 1.94638 32.2268 2.72874 32.8502 3.76621C33.4736 4.78668 33.8106 6.05376 33.8611 7.56745C33.878 8.31579 33.8864 8.97058 33.8864 9.53184C33.8864 10.0931 33.878 10.7394 33.8611 11.4707C33.7937 13.0524 33.4568 14.362 32.8502 15.3995C32.2605 16.437 31.3928 17.2108 30.2471 17.7211C29.1182 18.2143 27.7282 18.4609 26.0771 18.4609H19.3798ZM23.2718 14.7872H25.9507C26.6752 14.7872 27.2733 14.6767 27.7451 14.4556C28.2337 14.2175 28.5959 13.8518 28.8318 13.3586C29.0845 12.8654 29.2193 12.2191 29.2362 11.4197C29.2699 10.9265 29.2867 10.4843 29.2867 10.0931C29.3036 9.70192 29.3036 9.31074 29.2867 8.91956C29.2867 8.52838 29.2699 8.09469 29.2362 7.61847C29.2025 6.46194 28.8992 5.62006 28.3264 5.09282C27.7704 4.54857 26.9363 4.27645 25.8243 4.27645H23.2718V14.7872Z" fill="black"/>
  <path d="M40.4658 18.4609C40.1794 18.4609 39.9519 18.3844 39.7835 18.2313C39.615 18.0782 39.497 17.8997 39.4296 17.6956L34.274 1.36812C34.2403 1.28308 34.2234 1.20655 34.2234 1.13852C34.2234 1.00245 34.274 0.8834 34.3751 0.781354C34.493 0.6623 34.6278 0.602772 34.7794 0.602772H37.9133C38.1828 0.602772 38.3935 0.679307 38.5451 0.832377C38.6967 0.985447 38.7894 1.13001 38.8231 1.26607L42.3866 13.0524L45.9753 1.26607C46.0259 1.13001 46.1185 0.985447 46.2533 0.832377C46.405 0.679307 46.6156 0.602772 46.8851 0.602772H50.019C50.1706 0.602772 50.297 0.6623 50.3981 0.781354C50.516 0.8834 50.575 1.00245 50.575 1.13852C50.575 1.20655 50.5581 1.28308 50.5244 1.36812L45.3688 17.6956C45.3014 17.8997 45.1834 18.0782 45.015 18.2313C44.8633 18.3844 44.6359 18.4609 44.3326 18.4609H40.4658Z" fill="black"/>
  <path d="M49.6322 18.4609C49.4974 18.4609 49.371 18.4099 49.2531 18.3078C49.152 18.1888 49.1015 18.0612 49.1015 17.9252C49.1015 17.8401 49.1099 17.7636 49.1267 17.6956L55.0659 1.3171C55.1164 1.13001 55.2175 0.968439 55.3691 0.832377C55.5376 0.679307 55.7651 0.602772 56.0515 0.602772H59.7919C60.0783 0.602772 60.2973 0.679307 60.449 0.832377C60.6175 0.968439 60.727 1.13001 60.7775 1.3171L66.6914 17.6956C66.7251 17.7636 66.7419 17.8401 66.7419 17.9252C66.7419 18.0612 66.683 18.1888 66.565 18.3078C66.4639 18.4099 66.3376 18.4609 66.1859 18.4609H63.0774C62.8246 18.4609 62.6309 18.4014 62.4961 18.2823C62.3781 18.1463 62.3023 18.0272 62.2686 17.9252L61.283 15.323H54.5351L53.5748 17.9252C53.5411 18.0272 53.4652 18.1463 53.3473 18.2823C53.2294 18.4014 53.0272 18.4609 52.7407 18.4609H49.6322ZM55.5713 11.6493H60.2721L57.8964 4.91424L55.5713 11.6493Z" fill="black"/>
  <path d="M68.4812 18.4609C68.2959 18.4609 68.1442 18.4014 68.0263 18.2823C67.9084 18.1633 67.8494 18.0102 67.8494 17.8231V1.24056C67.8494 1.05348 67.9084 0.900408 68.0263 0.781354C68.1442 0.6623 68.2959 0.602772 68.4812 0.602772H71.1601C71.4466 0.602772 71.6488 0.670803 71.7667 0.806866C71.9015 0.925919 71.9857 1.01946 72.0194 1.08749L78.186 10.9095V1.24056C78.186 1.05348 78.245 0.900408 78.3629 0.781354C78.4809 0.6623 78.6325 0.602772 78.8178 0.602772H81.8506C82.0359 0.602772 82.1875 0.6623 82.3055 0.781354C82.4234 0.900408 82.4824 1.05348 82.4824 1.24056V17.8231C82.4824 17.9932 82.4234 18.1463 82.3055 18.2823C82.1875 18.4014 82.0359 18.4609 81.8506 18.4609H79.1464C78.8768 18.4609 78.6746 18.3929 78.5398 18.2568C78.4219 18.1208 78.3461 18.0272 78.3124 17.9762L72.1458 8.53689V17.8231C72.1458 18.0102 72.0868 18.1633 71.9689 18.2823C71.8509 18.4014 71.6993 18.4609 71.514 18.4609H68.4812Z" fill="black"/>
  <path d="M92.383 18.716C90.7824 18.716 89.4093 18.4524 88.2636 17.9252C87.1347 17.3979 86.2502 16.6241 85.6099 15.6036C84.9865 14.5831 84.6411 13.3161 84.5737 11.8024C84.5569 11.1051 84.5484 10.3567 84.5484 9.55735C84.5484 8.75799 84.5569 7.99264 84.5737 7.26131C84.6411 5.78163 84.9949 4.53156 85.6352 3.5111C86.2754 2.47363 87.1684 1.69127 88.3141 1.16403C89.4598 0.61978 90.8161 0.347656 92.383 0.347656C93.495 0.347656 94.5228 0.492222 95.4663 0.781354C96.4099 1.05348 97.2354 1.46166 97.9431 2.00591C98.6507 2.53315 99.1983 3.17945 99.5858 3.9448C99.9902 4.69314 100.201 5.54352 100.218 6.49596C100.234 6.64903 100.184 6.77659 100.066 6.87863C99.9649 6.98068 99.8385 7.0317 99.6869 7.0317H96.2751C96.056 7.0317 95.8875 6.98918 95.7696 6.90414C95.6517 6.8021 95.5506 6.62352 95.4663 6.3684C95.2305 5.46699 94.8429 4.85471 94.3038 4.53156C93.7815 4.19141 93.1328 4.02133 92.3578 4.02133C91.4311 4.02133 90.6982 4.28495 90.159 4.81219C89.6199 5.32242 89.325 6.18131 89.2745 7.38886C89.2239 8.7835 89.2239 10.2122 89.2745 11.6748C89.325 12.8824 89.6199 13.7498 90.159 14.277C90.6982 14.7872 91.4311 15.0424 92.3578 15.0424C93.1328 15.0424 93.7899 14.8723 94.329 14.5321C94.8682 14.192 95.2473 13.5797 95.4663 12.6953C95.5337 12.4402 95.6264 12.2701 95.7443 12.185C95.8791 12.083 96.056 12.032 96.2751 12.032H99.6869C99.8385 12.032 99.9649 12.083 100.066 12.185C100.184 12.2871 100.234 12.4147 100.218 12.5677C100.201 13.5202 99.9902 14.379 99.5858 15.1444C99.1983 15.8927 98.6507 16.539 97.9431 17.0833C97.2354 17.6105 96.4099 18.0187 95.4663 18.3078C94.5228 18.58 93.495 18.716 92.383 18.716Z" fill="black"/>
  <path d="M102.622 18.4609C102.437 18.4609 102.285 18.4014 102.167 18.2823C102.049 18.1633 101.99 18.0102 101.99 17.8231V1.24056C101.99 1.05348 102.049 0.900408 102.167 0.781354C102.285 0.6623 102.437 0.602772 102.622 0.602772H114.425C114.61 0.602772 114.762 0.6623 114.88 0.781354C114.998 0.900408 115.057 1.05348 115.057 1.24056V3.63866C115.057 3.82574 114.998 3.97881 114.88 4.09786C114.762 4.21692 114.61 4.27645 114.425 4.27645H106.363V7.72051H113.869C114.054 7.72051 114.206 7.78855 114.324 7.92461C114.442 8.04366 114.501 8.19673 114.501 8.38382V10.6033C114.501 10.7734 114.442 10.9265 114.324 11.0625C114.206 11.1816 114.054 11.2411 113.869 11.2411H106.363V14.7872H114.627C114.812 14.7872 114.964 14.8468 115.082 14.9658C115.2 15.0849 115.259 15.2379 115.259 15.425V17.8231C115.259 18.0102 115.2 18.1633 115.082 18.2823C114.964 18.4014 114.812 18.4609 114.627 18.4609H102.622Z" fill="black"/>
  <path d="M0.707911 38.1363C0.568389 38.1363 0.449796 38.0941 0.352132 38.0096C0.268419 37.911 0.226562 37.7913 0.226562 37.6504V23.8552C0.226562 23.7003 0.268419 23.5806 0.352132 23.4961C0.449796 23.3975 0.568389 23.3482 0.707911 23.3482H1.75432C1.92174 23.3482 2.04731 23.3905 2.13103 23.475C2.21474 23.5595 2.26357 23.6299 2.27752 23.6862L6.7143 32.2211L11.172 23.6862C11.1999 23.6299 11.2487 23.5595 11.3185 23.475C11.4022 23.3905 11.5278 23.3482 11.6952 23.3482H12.7207C12.8742 23.3482 12.9928 23.3975 13.0765 23.4961C13.1741 23.5806 13.223 23.7003 13.223 23.8552V37.6504C13.223 37.7913 13.1741 37.911 13.0765 38.0096C12.9928 38.0941 12.8742 38.1363 12.7207 38.1363H11.6952C11.5557 38.1363 11.4371 38.0941 11.3394 38.0096C11.2557 37.911 11.2139 37.7913 11.2139 37.6504V27.2565L7.71885 34.1435C7.66304 34.2844 7.57933 34.3971 7.46771 34.4816C7.35609 34.552 7.21657 34.5872 7.04915 34.5872H6.40037C6.219 34.5872 6.0725 34.552 5.96088 34.4816C5.86322 34.3971 5.77951 34.2844 5.70974 34.1435L2.21474 27.2565V37.6504C2.21474 37.7913 2.16591 37.911 2.06824 38.0096C1.98453 38.0941 1.87291 38.1363 1.73339 38.1363H0.707911Z" fill="#191919"/>
  <path d="M21.3629 38.3476C20.1769 38.3476 19.1584 38.1434 18.3074 37.7349C17.4563 37.3124 16.8005 36.6716 16.3401 35.8125C15.8797 34.9393 15.6216 33.8478 15.5658 32.538C15.5518 31.9183 15.5448 31.3268 15.5448 30.7634C15.5448 30.186 15.5518 29.5874 15.5658 28.9677C15.6216 27.672 15.8867 26.5946 16.361 25.7354C16.8494 24.8622 17.5191 24.2144 18.3701 23.7919C19.2352 23.3553 20.2328 23.137 21.3629 23.137C22.507 23.137 23.5045 23.3553 24.3556 23.7919C25.2206 24.2144 25.8973 24.8622 26.3856 25.7354C26.874 26.5946 27.1391 27.672 27.1809 28.9677C27.2088 29.5874 27.2228 30.186 27.2228 30.7634C27.2228 31.3268 27.2088 31.9183 27.1809 32.538C27.1391 33.8478 26.8809 34.9393 26.4066 35.8125C25.9461 36.6716 25.2904 37.3124 24.4393 37.7349C23.5882 38.1434 22.5628 38.3476 21.3629 38.3476ZM21.3629 36.5519C22.4372 36.5519 23.3092 36.228 23.9789 35.5801C24.6626 34.9322 25.0323 33.883 25.0881 32.4323C25.116 31.7986 25.1299 31.2352 25.1299 30.7423C25.1299 30.2353 25.116 29.6719 25.0881 29.0522C25.0602 28.0804 24.8788 27.2917 24.544 26.6861C24.2231 26.0805 23.7905 25.6369 23.2464 25.3552C22.7023 25.0735 22.0744 24.9327 21.3629 24.9327C20.6792 24.9327 20.0653 25.0735 19.5212 25.3552C18.9771 25.6369 18.5376 26.0805 18.2027 26.6861C17.8818 27.2917 17.7004 28.0804 17.6586 29.0522C17.6446 29.6719 17.6377 30.2353 17.6377 30.7423C17.6377 31.2352 17.6446 31.7986 17.6586 32.4323C17.7144 33.883 18.0841 34.9322 18.7678 35.5801C19.4514 36.228 20.3165 36.5519 21.3629 36.5519Z" fill="#191919"/>
  <path d="M30.0221 38.1363C29.8686 38.1363 29.75 38.0941 29.6663 38.0096C29.5826 37.911 29.5407 37.7913 29.5407 37.6504V23.8552C29.5407 23.7003 29.5826 23.5806 29.6663 23.4961C29.75 23.3975 29.8686 23.3482 30.0221 23.3482H35.1285C36.7051 23.3482 37.9539 23.7214 38.8747 24.4679C39.7955 25.2143 40.256 26.3199 40.256 27.7847C40.256 28.8691 39.9839 29.7564 39.4398 30.4465C38.9096 31.1225 38.1841 31.5944 37.2632 31.8619L40.4862 37.4814C40.528 37.5659 40.5489 37.6434 40.5489 37.7138C40.5489 37.8265 40.5001 37.9251 40.4024 38.0096C40.3187 38.0941 40.2211 38.1363 40.1095 38.1363H39.1049C38.8677 38.1363 38.6933 38.073 38.5817 37.9462C38.4701 37.8194 38.3724 37.6927 38.2887 37.5659L35.2541 32.2H31.5917V37.6504C31.5917 37.7913 31.5429 37.911 31.4452 38.0096C31.3615 38.0941 31.2429 38.1363 31.0894 38.1363H30.0221ZM31.5917 30.4043H35.0448C36.0912 30.4043 36.8726 30.186 37.3888 29.7494C37.905 29.2987 38.1631 28.6367 38.1631 27.7635C38.1631 26.9044 37.905 26.2495 37.3888 25.7988C36.8865 25.3481 36.1052 25.1228 35.0448 25.1228H31.5917V30.4043Z" fill="#191919"/>
  <path d="M46.0418 38.1363C45.9023 38.1363 45.7837 38.0941 45.686 38.0096C45.6023 37.911 45.5604 37.7913 45.5604 37.6504V25.2284H41.5422C41.4027 25.2284 41.2841 25.1862 41.1864 25.1017C41.1027 25.0031 41.0609 24.8834 41.0609 24.7425V23.8552C41.0609 23.7003 41.1027 23.5806 41.1864 23.4961C41.2841 23.3975 41.4027 23.3482 41.5422 23.3482H51.6296C51.7831 23.3482 51.9017 23.3975 51.9854 23.4961C52.083 23.5806 52.1319 23.7003 52.1319 23.8552V24.7425C52.1319 24.8834 52.083 25.0031 51.9854 25.1017C51.9017 25.1862 51.7831 25.2284 51.6296 25.2284H47.6323V37.6504C47.6323 37.7913 47.5835 37.911 47.4858 38.0096C47.4021 38.0941 47.2835 38.1363 47.13 38.1363H46.0418Z" fill="#191919"/>
  <path d="M58.7547 38.3476C57.5269 38.3476 56.4805 38.1152 55.6154 37.6504C54.7644 37.1857 54.1086 36.5308 53.6482 35.6857C53.2017 34.8407 52.9506 33.8478 52.8948 32.707C52.8808 32.0873 52.8738 31.4324 52.8738 30.7423C52.8738 30.0381 52.8808 29.3691 52.8948 28.7353C52.9506 27.5945 53.2017 26.6086 53.6482 25.7777C54.1086 24.9467 54.7713 24.2989 55.6364 23.8341C56.5014 23.3693 57.5408 23.137 58.7547 23.137C59.7453 23.137 60.6033 23.2778 61.3288 23.5595C62.0543 23.8412 62.6473 24.2003 63.1077 24.6369C63.5821 25.0594 63.9309 25.5031 64.1541 25.9678C64.3913 26.4326 64.5169 26.841 64.5308 27.1931C64.5448 27.3199 64.5099 27.4255 64.4262 27.51C64.3425 27.5804 64.2309 27.6156 64.0913 27.6156H62.8566C62.7171 27.6156 62.6124 27.5875 62.5427 27.5311C62.4869 27.4748 62.431 27.3762 62.3752 27.2354C62.2497 26.8692 62.0404 26.5101 61.7474 26.158C61.4683 25.8059 61.0847 25.5171 60.5963 25.2918C60.122 25.0524 59.5081 24.9327 58.7547 24.9327C57.6524 24.9327 56.7595 25.2355 56.0759 25.8411C55.4062 26.4467 55.0434 27.4466 54.9876 28.8409C54.9457 30.0944 54.9457 31.3479 54.9876 32.6014C55.0434 34.0097 55.4131 35.0238 56.0968 35.6435C56.7804 36.2491 57.6734 36.5519 58.7756 36.5519C59.5151 36.5519 60.1708 36.4181 60.7428 36.1505C61.3288 35.8688 61.7892 35.4393 62.1241 34.8618C62.459 34.2844 62.6264 33.552 62.6264 32.6647V31.7774H59.4871C59.3476 31.7774 59.229 31.7352 59.1314 31.6507C59.0477 31.5521 59.0058 31.4253 59.0058 31.2704V30.5944C59.0058 30.4395 59.0477 30.3198 59.1314 30.2353C59.229 30.1367 59.3476 30.0874 59.4871 30.0874H64.2169C64.3704 30.0874 64.489 30.1367 64.5727 30.2353C64.6564 30.3198 64.6983 30.4395 64.6983 30.5944V32.6225C64.6983 33.7774 64.4611 34.7844 63.9867 35.6435C63.5263 36.5026 62.8496 37.1716 61.9567 37.6504C61.0637 38.1152 59.9964 38.3476 58.7547 38.3476Z" fill="#191919"/>
  <path d="M65.6817 38.1363C65.5701 38.1363 65.4724 38.0941 65.3887 38.0096C65.305 37.9251 65.2632 37.8265 65.2632 37.7138C65.2632 37.6434 65.2701 37.5659 65.2841 37.4814L70.4743 23.813C70.5301 23.6722 70.6068 23.5595 70.7045 23.475C70.8022 23.3905 70.9486 23.3482 71.144 23.3482H72.5671C72.7485 23.3482 72.888 23.3905 72.9857 23.475C73.0973 23.5595 73.181 23.6722 73.2368 23.813L78.4061 37.4814C78.434 37.5659 78.4479 37.6434 78.4479 37.7138C78.4479 37.8265 78.4061 37.9251 78.3223 38.0096C78.2386 38.0941 78.141 38.1363 78.0294 38.1363H76.962C76.7946 38.1363 76.669 38.0941 76.5853 38.0096C76.5155 37.9251 76.4667 37.8476 76.4388 37.7772L75.2878 34.7773H68.4233L67.2723 37.7772C67.2583 37.8476 67.2095 37.9251 67.1258 38.0096C67.0421 38.0941 66.9165 38.1363 66.7491 38.1363H65.6817ZM69.0302 32.9605H74.6808L71.8555 25.4608L69.0302 32.9605Z" fill="#191919"/>
  <path d="M85.0032 38.3476C83.7754 38.3476 82.729 38.1152 81.864 37.6504C81.0129 37.1857 80.3571 36.5308 79.8967 35.6857C79.4502 34.8407 79.1991 33.8478 79.1433 32.707C79.1293 32.0873 79.1224 31.4324 79.1224 30.7423C79.1224 30.0381 79.1293 29.3691 79.1433 28.7353C79.1991 27.5945 79.4502 26.6086 79.8967 25.7777C80.3571 24.9467 81.0198 24.2989 81.8849 23.8341C82.7499 23.3693 83.7893 23.137 85.0032 23.137C85.9938 23.137 86.8518 23.2778 87.5773 23.5595C88.3028 23.8412 88.8958 24.2003 89.3562 24.6369C89.8306 25.0594 90.1794 25.5031 90.4026 25.9678C90.6398 26.4326 90.7654 26.841 90.7794 27.1931C90.7933 27.3199 90.7584 27.4255 90.6747 27.51C90.591 27.5804 90.4794 27.6156 90.3399 27.6156H89.1051C88.9656 27.6156 88.8609 27.5875 88.7912 27.5311C88.7354 27.4748 88.6796 27.3762 88.6237 27.2354C88.4982 26.8692 88.2889 26.5101 87.9959 26.158C87.7169 25.8059 87.3332 25.5171 86.8449 25.2918C86.3705 25.0524 85.7566 24.9327 85.0032 24.9327C83.901 24.9327 83.008 25.2355 82.3244 25.8411C81.6547 26.4467 81.2919 27.4466 81.2361 28.8409C81.1942 30.0944 81.1942 31.3479 81.2361 32.6014C81.2919 34.0097 81.6616 35.0238 82.3453 35.6435C83.0289 36.2491 83.9219 36.5519 85.0241 36.5519C85.7636 36.5519 86.4193 36.4181 86.9914 36.1505C87.5773 35.8688 88.0378 35.4393 88.3726 34.8618C88.7075 34.2844 88.8749 33.552 88.8749 32.6647V31.7774H85.7357C85.5961 31.7774 85.4775 31.7352 85.3799 31.6507C85.2962 31.5521 85.2543 31.4253 85.2543 31.2704V30.5944C85.2543 30.4395 85.2962 30.3198 85.3799 30.2353C85.4775 30.1367 85.5961 30.0874 85.7357 30.0874H90.4654C90.6189 30.0874 90.7375 30.1367 90.8212 30.2353C90.9049 30.3198 90.9468 30.4395 90.9468 30.5944V32.6225C90.9468 33.7774 90.7096 34.7844 90.2352 35.6435C89.7748 36.5026 89.0981 37.1716 88.2052 37.6504C87.3122 38.1152 86.2449 38.3476 85.0032 38.3476Z" fill="#191919"/>
  <path d="M93.6813 38.1363C93.5279 38.1363 93.4093 38.0941 93.3255 38.0096C93.2418 37.911 93.2 37.7913 93.2 37.6504V23.8552C93.2 23.7003 93.2418 23.5806 93.3255 23.4961C93.4093 23.3975 93.5279 23.3482 93.6813 23.3482H102.325C102.478 23.3482 102.597 23.3975 102.68 23.4961C102.764 23.5806 102.806 23.7003 102.806 23.8552V24.658C102.806 24.8129 102.764 24.9327 102.68 25.0172C102.597 25.1017 102.478 25.1439 102.325 25.1439H95.2091V29.7705H101.864C102.018 29.7705 102.136 29.8198 102.22 29.9184C102.304 30.0029 102.346 30.1226 102.346 30.2775V31.0592C102.346 31.2 102.304 31.3197 102.22 31.4183C102.136 31.5028 102.018 31.5451 101.864 31.5451H95.2091V36.3406H102.492C102.646 36.3406 102.764 36.3829 102.848 36.4674C102.932 36.5519 102.973 36.6716 102.973 36.8265V37.6504C102.973 37.7913 102.932 37.911 102.848 38.0096C102.764 38.0941 102.646 38.1363 102.492 38.1363H93.6813Z" fill="#191919"/>
  <path d="M109.868 38.3476C108.654 38.3476 107.636 38.1645 106.813 37.7983C105.989 37.4181 105.355 36.9322 104.908 36.3406C104.476 35.735 104.245 35.0942 104.218 34.4182C104.218 34.3055 104.259 34.2069 104.343 34.1224C104.441 34.0238 104.552 33.9745 104.678 33.9745H105.745C105.913 33.9745 106.038 34.0168 106.122 34.1013C106.206 34.1858 106.262 34.2844 106.289 34.3971C106.359 34.7351 106.527 35.0731 106.792 35.4111C107.071 35.735 107.454 36.0097 107.943 36.235C108.445 36.4463 109.087 36.5519 109.868 36.5519C111.068 36.5519 111.947 36.3406 112.505 35.9181C113.077 35.4815 113.363 34.9041 113.363 34.1858C113.363 33.6929 113.21 33.2985 112.903 33.0027C112.61 32.6929 112.156 32.4183 111.542 32.1788C110.928 31.9394 110.133 31.6789 109.157 31.3972C108.138 31.1014 107.294 30.7775 106.624 30.4254C105.955 30.0733 105.452 29.6367 105.117 29.1156C104.797 28.5945 104.636 27.9325 104.636 27.1298C104.636 26.3692 104.838 25.6932 105.243 25.1017C105.648 24.4961 106.227 24.0172 106.98 23.6651C107.747 23.313 108.675 23.137 109.763 23.137C110.629 23.137 111.382 23.2567 112.024 23.4961C112.679 23.7214 113.224 24.0313 113.656 24.4256C114.089 24.8059 114.417 25.2214 114.64 25.6721C114.863 26.1087 114.982 26.5382 114.996 26.9607C114.996 27.0593 114.961 27.1579 114.891 27.2565C114.821 27.341 114.71 27.3833 114.556 27.3833H113.447C113.349 27.3833 113.245 27.3551 113.133 27.2988C113.035 27.2424 112.959 27.1368 112.903 26.9819C112.819 26.4044 112.498 25.9185 111.94 25.5242C111.382 25.1298 110.656 24.9327 109.763 24.9327C108.857 24.9327 108.117 25.1087 107.545 25.4608C106.987 25.8129 106.708 26.3622 106.708 27.1086C106.708 27.5875 106.841 27.9889 107.106 28.3128C107.371 28.6226 107.789 28.8973 108.361 29.1367C108.933 29.3761 109.68 29.6296 110.601 29.8972C111.717 30.2071 112.631 30.5381 113.342 30.8902C114.054 31.2282 114.577 31.6577 114.912 32.1788C115.261 32.6859 115.435 33.3408 115.435 34.1435C115.435 35.0308 115.205 35.7914 114.744 36.4251C114.284 37.0448 113.635 37.5237 112.798 37.8617C111.975 38.1856 110.998 38.3476 109.868 38.3476Z" fill="#191919"/>
</svg>
