<svg width="464" height="152" viewBox="0 0 464 152" fill="none" xmlns="http://www.w3.org/2000/svg">
<g clip-path="url(#clip0_678_1681)">
<path d="M114.064 133.386C114.064 138.323 111.82 141.017 108.228 142.812C92.9665 148.648 74.5623 151.79 57.0559 151.79C39.5495 151.79 21.1453 148.648 5.88332 142.812C1.84338 141.466 0.0478516 138.323 0.0478516 133.386V1.41431H114.513" fill="#3F3F3F"/>
<path d="M30.1229 81.7642C14.4121 71.8888 9.02548 67.4 8.57659 61.1156C8.57659 59.769 8.57659 57.5246 9.47436 56.1779L8.12771 55.2801C6.78107 57.0757 6.33218 59.769 6.33218 62.0134C6.33218 65.6044 7.67883 68.7466 9.02548 70.991C11.2699 74.5821 13.5143 76.3776 19.3498 80.8664C25.6341 85.3552 29.6741 91.1907 32.3673 96.5773H33.2651V90.293C41.7939 95.2307 48.976 99.7195 52.567 107.35H53.4648C51.6693 98.3728 47.1805 92.0885 30.1229 81.7642ZM103.291 106.902H102.393C102.393 101.066 97.0064 99.2706 91.1709 99.2706H73.2156C73.6645 101.964 74.1134 105.555 73.6645 108.697H72.7667C70.9712 95.2307 63.7891 88.9463 53.0159 81.7642V87.5997H52.1182C49.4249 81.3153 43.1405 75.4798 37.3051 71.4399C35.9584 70.5421 34.1629 69.1955 32.3673 67.8488V74.5821H31.9185C29.2252 68.2977 24.7364 63.8089 18.452 57.9734C11.7188 51.6891 8.57659 48.098 7.22995 43.6092C6.33218 40.9159 5.8833 39.1204 5.8833 35.9782C5.8833 31.0405 8.57659 26.5517 11.7188 24.7562V27.0006C9.92324 29.6939 9.47436 31.9383 9.47436 34.6316C9.47436 37.3249 9.92324 40.0182 11.2699 42.2626C15.3098 49.4447 28.3274 58.8712 36.4073 64.2578C61.9936 81.3153 67.3802 84.4575 71.4201 93.884C71.869 94.7818 72.3179 96.1284 72.7667 97.924C76.3578 97.4751 89.8243 95.2307 92.5176 94.7818C92.9664 94.7818 93.8642 94.7818 94.3131 94.3329C96.5575 92.9862 98.353 91.1907 100.149 88.4974L90.2732 87.5997C89.8243 88.9463 89.3754 89.8441 88.9265 90.293H88.0287C88.4776 89.3952 88.4776 88.4974 88.9265 87.1508H86.2332V86.7019L88.9265 86.253C89.3754 83.5597 89.8243 80.8664 89.8243 78.1731L77.2556 77.2754V80.8664H76.3578C75.9089 79.5198 75.9089 78.1731 75.9089 77.2754H73.2156V76.3776H75.9089C75.46 73.2354 75.46 70.0933 75.46 67.4L68.2779 66.9511C68.7268 67.4 69.1757 68.2977 69.1757 68.7466C70.5223 73.2354 70.5223 78.1731 70.0734 80.4176H69.1757C69.1757 77.7243 68.2779 74.1332 67.3802 72.3377C65.5846 67.4 60.6469 63.36 53.4648 58.4223V64.2578H52.567C49.8737 56.1779 43.5894 51.6891 34.6118 47.2003C26.5319 44.9559 23.8386 40.0182 24.2875 32.836L26.9808 34.1827C27.4296 40.9159 32.8162 44.9559 38.6517 44.9559C41.7939 44.9559 44.936 44.507 48.0782 44.0581C52.1182 43.1603 56.1581 42.2626 59.7492 43.6092V39.5693H57.0559C56.1581 40.467 54.3626 41.3648 51.6693 41.3648C48.5271 41.3648 42.6916 39.5693 42.6916 33.2849C42.6916 27.8983 47.1805 27.0006 51.2204 27.0006H57.9536C58.8514 27.0006 59.3003 27.0006 59.7492 26.5517C60.198 26.1028 60.198 25.6539 60.198 25.205V18.4718H42.2428V25.6539L35.9584 22.5117V20.7162H39.1006V18.0229H26.9808V12.1875H22.9408C20.6964 12.1875 18.452 13.5341 18.0031 16.6763C18.0031 19.3696 18.9009 22.0629 22.0431 22.0629H22.4919V25.6539H22.0431C17.1054 25.6539 13.0654 21.614 13.0654 16.6763C13.0654 11.2897 17.5542 7.24976 22.9408 7.24976H31.4696V13.0852H65.1357V26.1028C65.1357 27.0006 64.6869 28.7961 62.8913 30.1427C61.9936 30.5916 60.6469 30.5916 57.9536 31.0405H51.6693C47.6293 30.5916 46.7316 32.3872 46.7316 33.7338V34.6316C48.5271 33.2849 51.2204 32.3872 53.9137 33.2849C58.8514 35.0804 60.6469 35.0804 62.8913 32.836L63.3402 33.2849C62.8913 33.7338 62.4425 34.1827 61.9936 35.0804H64.238V48.5469L71.869 44.0581H93.4153C93.4153 44.0581 102.393 48.9958 104.188 49.4447C105.535 50.3424 105.984 50.7913 106.433 52.138C106.433 53.0357 106.433 54.3824 105.984 55.2801C105.535 55.729 103.291 59.769 101.944 62.0134C105.535 66.0533 108.228 71.4399 108.228 77.7243C108.228 83.1108 105.984 90.293 99.2508 95.6795C102.393 96.5773 104.188 98.3728 105.535 100.168L103.291 106.902ZM55.2603 35.0804C52.1182 34.6316 50.7715 34.6316 48.976 36.4271C49.8737 36.876 50.7715 36.876 52.1182 36.876C53.4648 36.876 54.8115 35.9782 55.2603 35.0804ZM53.4648 54.3824L61.9936 49.4447C60.198 48.5469 58.4025 48.098 56.1581 48.098C53.0159 48.098 48.0782 49.4447 45.8338 49.8936C47.1805 50.3424 50.7715 52.5869 53.4648 54.3824ZM91.6198 54.8313L92.9664 53.0357L91.1709 50.7913L91.6198 50.3424L96.5575 53.0357L95.6597 56.6268C96.5575 57.0757 97.4553 57.5246 98.353 58.4223L101.495 53.0357L92.9664 48.5469H74.1134L58.8514 57.9734C61.5447 59.769 64.238 62.0134 66.4824 64.2578C70.5223 58.4223 77.7044 54.3824 84.8866 54.3824C86.2332 53.9335 88.9265 53.9335 91.6198 54.8313ZM89.8243 76.3776C89.8243 73.6843 89.3754 70.991 88.9265 68.7466L79.0511 68.2977C78.1533 71.4399 77.7044 74.1332 77.7044 77.2754L89.8243 76.3776ZM93.4153 69.1955C93.8642 71.8888 93.8642 74.1332 93.4153 76.3776L103.291 75.9287C102.842 73.6843 102.393 71.4399 101.495 69.6444L93.4153 69.1955ZM88.0287 65.6044C87.131 62.0134 85.7843 59.3201 84.8866 58.4223H81.2955C80.3977 61.1156 79.5 63.36 78.6022 66.0533L88.0287 65.6044ZM91.1709 59.769C92.0687 61.5645 92.5176 63.8089 92.9664 65.6044L99.2508 65.1556C96.5575 62.9111 93.8642 60.6667 91.1709 59.769ZM101.944 85.3552C102.842 83.5597 103.291 81.7642 103.291 79.9687L92.9664 79.5198C92.5176 82.2131 91.6198 84.9064 90.722 87.1508L101.944 85.3552ZM76.8067 60.2179C73.2156 61.5645 70.9712 63.8089 68.7268 66.9511L75.9089 66.5022C75.9089 63.36 76.3578 61.1156 76.8067 60.2179Z" fill="white"/>
<path d="M63.34 122.164C66.0333 121.715 69.1755 119.47 69.1755 115.879C69.1755 112.737 67.8288 109.595 58.8512 109.595H43.5892V110.044C44.0381 110.044 44.9358 110.493 45.3847 110.942C46.2825 111.839 46.7314 113.635 46.7314 115.43V138.323H59.3001C66.0333 138.323 71.4199 135.63 71.4199 129.795C71.4199 124.408 67.38 122.612 63.34 122.164ZM57.0557 112.288C60.1978 112.288 62.4422 113.186 62.4422 116.328C62.4422 119.919 59.3001 120.817 56.1579 120.817H53.4646V111.839C53.4646 112.288 55.2601 112.288 57.0557 112.288ZM57.5045 135.63H53.4646V123.959H57.5045C62.8911 123.959 64.6867 125.755 64.6867 129.346C64.6867 133.835 61.9934 135.63 57.5045 135.63ZM32.3671 138.323H40.447L30.1227 124.857C34.1627 123.51 37.3048 121.266 37.3048 117.226C37.3048 112.288 34.1627 109.595 26.5317 109.595H10.8208V110.044C11.2697 110.044 12.1674 110.493 12.6163 110.942C13.5141 111.839 13.963 113.635 13.963 115.879V137.874H20.6962V125.306H22.9406L32.3671 138.323ZM20.6962 112.288H25.185C28.7761 112.288 31.0205 113.186 31.0205 117.226C31.0205 120.817 28.3272 122.612 24.2873 122.612H20.6962V112.288ZM97.9039 113.635C99.6995 114.533 100.148 115.879 100.148 115.879H100.597L101.944 110.942C101.944 110.942 99.2506 109.146 93.4151 109.146C83.9886 109.146 77.2554 113.635 77.2554 123.959C77.2554 135.63 85.3352 138.323 92.9662 138.323C99.6995 138.323 102.393 136.079 102.393 136.079V132.937C102.393 132.937 100.148 135.181 94.7618 135.181C90.7218 135.181 84.4375 133.386 83.9886 123.959C83.9886 115.43 87.5797 112.288 92.9662 112.288C95.6595 112.288 97.0062 113.186 97.9039 113.635Z" fill="white"/>
<path d="M123.041 149.545C119.001 149.545 115.859 146.403 115.859 142.363C115.859 138.323 119.001 135.181 123.041 135.181C127.081 135.181 130.223 138.323 130.223 142.363C130.223 146.403 127.081 149.545 123.041 149.545ZM123.041 136.528C119.899 136.528 117.654 139.221 117.654 142.363C117.654 145.505 119.899 148.199 123.041 148.199C126.183 148.199 128.428 145.505 128.428 142.363C128.876 139.221 126.183 136.528 123.041 136.528ZM123.49 138.323C124.837 138.323 125.734 139.221 125.734 140.568C125.734 141.914 124.837 142.812 123.939 142.812L124.388 143.261C124.837 143.71 126.183 146.403 126.183 146.403H124.388C123.939 145.954 123.939 145.505 123.49 145.056C122.592 143.71 122.592 143.261 122.143 143.261H121.694V146.403H120.348V138.323H123.49ZM122.592 141.465C123.49 141.465 123.939 141.465 124.388 141.017V140.119C124.388 139.67 124.388 139.221 123.939 139.221H122.592V141.465ZM171.071 0.965332H174.662V151.341H171.071V0.965332ZM221.346 49.4446C220 46.7513 219.102 45.8535 217.755 43.1603C214.164 36.427 212.817 34.6315 211.471 34.1826C211.022 34.1826 210.573 33.7337 210.124 33.7337V49.4446H202.942V12.1874H216.857C223.591 12.1874 227.631 16.6762 227.631 22.9606C227.631 28.3471 224.039 33.2848 219.102 33.2848C220 33.7337 220 34.1826 220.448 34.6315C222.693 37.3248 229.426 48.9957 229.426 48.9957H221.346V49.4446ZM217.755 18.9206C216.857 18.4717 215.511 18.4717 213.715 18.4717H211.022V28.796H213.266C216.408 28.796 217.755 28.3471 219.102 27.4494C220 26.5516 220.448 25.205 220.448 23.8583C220.448 21.165 219.551 19.3695 217.755 18.9206ZM254.563 46.3024C252.319 48.5468 249.626 50.3424 245.586 50.3424C237.955 50.3424 233.017 44.9558 233.017 35.9781C233.017 27.4494 237.955 21.6139 245.586 21.6139C249.626 21.6139 252.768 22.9606 255.012 25.6539C257.257 28.3471 258.155 31.0404 258.155 35.5293C257.706 40.467 256.808 43.6091 254.563 46.3024ZM248.728 28.3471C247.83 27.4494 246.932 27.0005 245.586 27.0005C243.79 27.0005 242.444 27.8983 241.995 29.6938C241.546 31.0404 241.097 33.2848 241.097 35.9781C241.097 39.1203 241.546 41.3647 241.995 42.7114C242.444 44.058 244.239 44.9558 245.586 44.9558C248.728 44.9558 250.075 42.2625 250.075 35.5293C250.075 31.9382 249.626 29.6938 248.728 28.3471ZM279.701 22.0628H287.332L277.456 49.8935C275.661 55.2801 274.314 57.5245 272.07 58.8711C270.274 60.2178 268.03 61.1155 265.337 61.5644L262.643 57.0756C263.99 56.6267 266.234 56.1778 267.132 55.2801C268.03 54.8312 268.479 53.9334 269.377 53.0357C270.274 51.689 270.274 51.2401 270.723 49.8935H268.928C268.03 47.2002 266.683 43.1603 266.234 42.2625L259.501 22.9606L266.683 22.0628L271.621 38.2226C272.07 40.0181 272.968 43.6091 272.968 44.058M310.674 51.2401C308.878 50.3424 307.532 49.4446 306.634 48.098C306.185 48.5468 305.287 48.9957 304.838 49.4446C303.492 50.3424 301.696 50.7913 299.452 50.7913C293.167 50.7913 290.025 47.6491 290.025 42.2625C290.025 35.9781 294.514 32.836 303.492 32.836H305.287V31.4893C305.287 28.3471 304.838 27.4494 302.145 27.4494C299.901 27.4494 297.207 28.796 294.065 30.5916L290.923 25.205C292.27 24.3072 293.616 23.8583 295.412 22.9606C298.105 21.6139 300.349 21.165 303.043 21.165C307.532 21.165 310.674 22.9606 312.02 26.1027V40.467C312.02 43.6091 312.02 44.9558 314.714 46.7513L310.674 51.2401ZM304.389 37.7737C299.452 37.7737 297.656 38.6714 297.656 41.8136C297.656 44.058 299.003 45.4047 300.798 45.4047C302.145 45.4047 303.492 44.5069 304.389 43.6091V37.7737ZM326.834 50.3424C323.691 50.3424 321.447 48.9957 320.549 46.7513C320.1 45.4047 320.1 44.5069 320.1 40.467V19.8184C320.1 16.2273 320.1 13.9829 319.651 11.7385L326.834 9.94298C327.282 11.2896 327.282 13.0851 327.282 17.1251V38.6714C327.282 43.6091 327.282 44.058 327.731 44.9558C328.18 45.4047 328.629 45.8535 329.078 45.8535H329.976L331.322 50.3424H326.834ZM365.437 49.4446H348.829V12.1874H361.397C365.886 12.1874 368.131 13.0851 370.824 14.8807C373.068 16.6762 373.966 18.9206 373.966 21.6139C373.966 24.3072 373.068 26.1027 371.273 27.8983C370.375 28.796 369.477 29.2449 367.682 29.6938C372.171 31.0404 375.313 34.1826 375.313 39.1203C374.864 44.5069 371.722 49.4446 365.437 49.4446ZM363.642 18.9206C363.193 18.4717 362.295 18.4717 360.5 18.4717H356.011V27.0005H360.5C362.295 27.0005 363.193 27.0005 363.642 26.5516C364.988 26.1027 365.886 24.3072 365.886 22.9606C365.886 21.165 364.988 19.8184 363.642 18.9206ZM363.642 33.7337C362.744 33.2848 362.295 33.2848 360.949 33.2848H356.46V43.6091H361.397C362.744 43.6091 364.091 43.6091 364.988 42.7114C366.335 41.8136 366.784 40.0181 366.784 38.2226C366.335 35.9781 365.437 34.1826 363.642 33.7337ZM400.45 51.2401C398.655 50.3424 397.308 49.4446 396.41 48.098C395.961 48.5468 395.064 48.9957 394.615 49.4446C393.268 50.3424 391.473 50.7913 389.228 50.7913C382.944 50.7913 379.802 47.6491 379.802 42.2625C379.802 35.9781 384.29 32.836 393.268 32.836H395.064V31.4893C395.064 28.3471 394.615 27.4494 391.921 27.4494C389.677 27.4494 386.984 28.796 383.842 30.5916L380.699 25.205C382.046 24.3072 383.393 23.8583 385.188 22.9606C387.881 21.6139 390.126 21.165 392.819 21.165C397.308 21.165 400.45 22.9606 401.797 26.1027V40.467C401.797 43.6091 401.797 44.9558 404.49 46.7513L400.45 51.2401ZM394.166 37.7737C389.228 37.7737 387.433 38.6714 387.433 41.8136C387.433 44.058 388.779 45.4047 390.575 45.4047C391.921 45.4047 393.268 44.5069 394.166 43.6091V37.7737ZM424.241 49.4446V31.4893C424.241 28.3471 423.792 27.4494 421.996 27.4494C420.65 27.4494 418.854 28.3471 417.059 30.1427V49.4446H409.877V29.6938C409.877 27.4494 409.428 25.205 408.979 23.4094L415.263 21.6139C415.712 22.9606 416.161 23.8583 416.161 25.205C417.059 24.3072 417.957 23.8583 419.303 22.9606C420.65 22.0628 422.445 21.6139 424.241 21.6139C427.383 21.6139 430.076 23.4094 430.974 25.6539C431.423 26.5516 431.423 27.8983 431.423 29.6938V49.8935L424.241 49.4446ZM439.054 49.4446V18.4717C439.054 16.2273 439.054 13.9829 438.605 11.2896L445.787 9.49409C446.236 11.7385 446.236 14.8807 446.236 18.4717V49.4446H439.054ZM455.663 49.4446L446.236 33.7337L453.418 21.6139H461.947L452.969 33.2848L463.743 49.4446H455.663Z" fill="#3F3F3F"/>
</g>
<defs>
<clipPath id="clip0_678_1681">
<rect width="463.79" height="150.824" fill="white" transform="translate(0 0.965332)"/>
</clipPath>
</defs>
</svg>
