<svg width="168" height="80" viewBox="0 0 168 80" fill="none" xmlns="http://www.w3.org/2000/svg">
<path fill-rule="evenodd" clip-rule="evenodd" d="M5.69942 41.0098C4.80956 39.6417 4.6042 37.7241 4.6042 36.2876C4.6042 31.3591 8.98508 27.1836 13.5713 27.1836H27.9451L22.4006 32.7966H13.5019C9.94339 32.7956 5.56252 36.4235 5.69942 41.0098ZM11.1746 36.9712C11.5168 35.8075 12.6805 34.3016 13.7757 33.4801C11.7222 33.4801 9.39483 34.5069 7.54665 36.9712H11.1746ZM14.0505 34.1647C13.229 34.9176 12.3392 36.0128 11.86 36.9712H16.1724C15.7617 36.0128 14.8719 34.9176 14.0505 34.1647ZM7.20535 37.7241C6.65774 38.6824 6.45238 39.7777 6.31548 40.8729H10.3541C10.3541 39.7777 10.5595 38.6824 10.9017 37.7241H7.20535ZM11.5862 37.7241C11.244 38.6824 11.1071 39.7777 10.9702 40.8729H17.1308C16.9939 39.7777 16.857 38.6824 16.4463 37.7241H11.5862ZM20.4155 36.9712C18.7042 34.5069 16.3769 33.4801 14.3243 33.4801C15.4195 34.3016 16.4453 35.8075 16.9254 36.9712H20.4155ZM17.1983 37.7241C17.5405 38.6824 17.7459 39.7777 17.7459 40.8729H21.7845C21.716 39.7777 21.4422 38.6824 20.8946 37.7241H17.1983ZM7.5476 45.2537C9.39578 47.8549 11.7231 48.7448 13.7767 48.7448C12.6814 47.9243 11.5178 46.4184 11.1755 45.2537H7.5476ZM14.0505 48.1287C14.8719 47.4451 15.7617 46.2815 16.1724 45.2547H11.86C12.3392 46.2805 13.229 47.4451 14.0505 48.1287ZM10.9017 44.6377C10.5595 43.5425 10.3541 42.4463 10.3541 41.4889H6.31548C6.45238 42.5842 6.65774 43.6109 7.20535 44.6377H10.9017ZM16.4453 44.6377C16.857 43.6109 16.9929 42.5842 17.1298 41.4889H10.9692C11.1061 42.5842 11.243 43.6109 11.5853 44.6377H16.4453ZM16.9254 45.2537C16.4463 46.4184 15.4195 47.9243 14.3243 48.7448C16.3778 48.7448 18.7042 47.8549 20.4155 45.2537H16.9254ZM20.8956 44.6377C21.4432 43.6109 21.717 42.5842 21.7854 41.4889H17.7468C17.7468 42.4473 17.5415 43.5425 17.1992 44.6377H20.8956ZM22.4015 41.1467C22.47 45.8708 18.1575 49.4968 14.5981 49.4968H5.69942L0.0864258 55.0413H14.4612C19.0474 55.0413 23.4967 50.9342 23.4967 46.0058C23.4967 44.5683 23.2914 42.6526 22.4015 41.2151V41.1467ZM158.822 33.0694H162.448V33.618H160.944V37.5188H160.328V33.618H158.822V33.0694ZM166.624 37.5188V34.9176V33.8234L165.393 37.5197H164.777L163.544 33.8234V37.5188H162.93V33.0694H163.82L165.051 36.8333H165.119L166.352 33.0694H167.173V37.5188H166.624ZM64.4296 48.7448C60.6647 48.7448 57.9952 46.4849 57.9952 42.9939C57.9952 39.5039 60.8017 37.245 64.4296 37.245C68.0575 37.245 70.864 39.5039 70.864 42.9939C70.863 46.4849 68.125 48.7448 64.4296 48.7448ZM128.293 37.5188V48.5385H124.595L124.527 47.3757H124.46C124.048 47.7864 123.159 48.7438 120.763 48.7438C118.092 48.7438 115.766 46.4174 115.766 42.993C115.766 39.7767 117.82 37.244 121.036 37.244C123.158 37.244 124.048 38.2023 124.391 38.4761H124.459L124.526 37.5178L128.293 37.5188ZM99.5431 37.5188V48.5385H95.7792V47.3757H95.7108C95.2316 47.7864 94.4112 48.7438 92.0135 48.7438C89.3448 48.7438 87.0165 46.4174 87.0165 42.993C87.0165 39.7767 89.0701 37.244 92.2198 37.244C94.4112 37.244 95.3001 38.2023 95.6423 38.4761H95.7108L95.7792 37.5178L99.5431 37.5188ZM81.4045 37.5188H85.3062V48.5385H81.4045V37.5188ZM102.007 48.5385V32.9325H105.842V38.2717H105.91C106.183 38.1348 107.416 37.245 109.195 37.245C112.207 37.245 114.398 39.6408 114.398 42.7905C114.398 46.7606 111.934 48.7457 109.195 48.7457C107.073 48.7457 106.046 47.7874 105.772 47.5126H105.704L105.635 48.5394L102.007 48.5385ZM64.4296 46.0058C66.0039 46.0058 66.8938 44.6377 66.8938 42.9939C66.8938 41.352 66.0039 39.983 64.4296 39.983C62.7867 39.983 61.9653 41.353 61.9653 42.9939C61.9644 44.6377 62.8552 46.0058 64.4296 46.0058ZM79.5563 45.5266C79.4194 45.5951 78.8718 45.7329 78.5295 45.7329C77.7081 45.7329 76.8867 45.3222 76.8867 44.0207V40.2568H79.2825V37.5188H76.8867V33.9593H73.0535V37.5188H71.3422V40.2568H73.0535V44.6377C73.0535 47.0335 74.1487 48.7448 77.0236 48.7448C77.845 48.7448 78.598 48.6069 79.0772 48.5385L79.5563 45.5266ZM35.9539 48.1287C36.9806 48.47 38.6235 48.7448 40.4032 48.7448C43.6204 48.7448 46.9061 47.5801 46.9061 43.9522C46.9061 39.0247 40.1294 39.7092 40.1294 37.7926C40.1294 36.7658 41.1562 36.5604 42.1829 36.5604C43.6204 36.5604 45.4001 37.245 45.8108 37.3819L46.0847 33.9593C45.1263 33.617 43.6204 33.4801 42.1829 33.4801C38.9657 33.4801 35.7485 34.7123 35.7485 37.9295C35.7485 42.7905 42.5252 41.7637 42.5252 44.2964C42.5252 45.2547 41.5669 45.6645 40.3348 45.6645C38.6235 45.6645 36.9806 44.7746 36.2961 44.4998L35.9539 48.1287ZM119.806 42.8589C119.806 44.7061 120.832 45.8708 122.201 45.8708C123.366 45.8708 124.528 44.7061 124.528 43.0633C124.528 41.353 123.501 40.1893 122.201 40.1893C120.764 40.1884 119.806 41.353 119.806 42.8589ZM91.0552 42.9274C91.0552 44.7061 92.0819 45.8708 93.3835 45.8708C94.6146 45.8708 95.7792 44.7755 95.7792 43.0633C95.7792 41.353 94.7525 40.1893 93.3835 40.1893C92.0135 40.1884 91.0552 41.4214 91.0552 42.9274ZM57.0368 37.6557C56.763 37.5872 55.6678 37.245 54.2988 37.245C50.8762 37.245 48.2751 39.367 48.2751 42.9939C48.2751 46.2805 50.6024 48.7448 54.1609 48.7448C55.6669 48.7448 56.7621 48.334 57.0359 48.2656L56.8305 45.0474C56.5567 45.1853 55.8038 45.5951 54.9139 45.5951C53.3405 45.5951 52.2443 44.4998 52.2443 42.9939C52.2443 41.352 53.408 40.3253 54.9824 40.3253C55.8038 40.3253 56.5567 40.736 56.8305 40.8729L57.0368 37.6557ZM144.651 48.5385H148.484V43.4065H148.552L151.907 48.5385H156.15L152.112 42.6526L156.082 37.5188H151.839L148.552 42.0356H148.484V33.001H144.651V48.5385ZM130.757 48.5385H134.521V42.7895C134.521 41.488 135.412 40.5991 136.506 40.5991C137.807 40.5991 138.559 41.4214 138.559 42.7895V48.5385H142.325V41.9006C142.325 39.367 140.681 37.245 137.739 37.245C135.754 37.245 134.727 38.3402 134.248 38.7509H134.179V37.5188H130.757V48.5385ZM83.3896 31.9058C83.1009 31.9021 82.8144 31.9562 82.547 32.065C82.2795 32.1737 82.0366 32.3349 81.8325 32.5391C81.6283 32.7432 81.4671 32.9862 81.3583 33.2536C81.2496 33.521 81.1954 33.8075 81.1991 34.0962C81.1991 35.2599 82.1575 36.2172 83.3896 36.2172C83.9513 36.2145 84.4892 35.9901 84.8863 35.593C85.2835 35.1958 85.5079 34.6579 85.5106 34.0962C85.5106 32.865 84.5533 31.9058 83.3896 31.9058ZM110.428 42.9939C110.428 41.488 109.605 40.1884 108.099 40.1884C106.8 40.1884 105.773 41.2836 105.773 42.9939C105.773 44.6377 106.663 45.8014 108.099 45.8014C109.469 45.8023 110.428 44.7061 110.428 42.9939Z" fill="black"/>
</svg>
