<svg width="451" height="82" viewBox="0 0 451 82" fill="none" xmlns="http://www.w3.org/2000/svg">
<path fill-rule="evenodd" clip-rule="evenodd" d="M0 81.1504H90.9769V0H0V81.1504ZM59.6808 63.6822H38.5745V25.4709H49.1277V57.1328H59.3151C66.5936 57.1328 69.5049 52.0391 69.5049 39.6645C69.5049 26.929 65.8645 23.2886 58.9518 23.2886H35.6632V63.6846H25.11V23.2886H9.46318V16.3735H62.2289C74.9644 16.3735 80.7871 22.9229 80.7871 39.2988C80.7895 61.1365 71.6897 63.6822 59.6808 63.6822Z" fill="#999999"/>
<path fill-rule="evenodd" clip-rule="evenodd" d="M150.658 56.4808C148.11 57.2051 144.835 57.9341 141.56 57.9341C131.007 57.9341 122.636 52.1114 122.636 40.8316C122.636 29.9151 131.37 24.8214 141.56 24.8214C145.198 24.8214 147.02 25.1847 150.294 25.5481V34.2798C148.475 33.5531 146.291 32.8265 144.108 32.8265C139.015 32.8265 135.011 35.7379 135.011 40.8316C135.011 46.6543 138.649 49.2024 143.745 49.2024C146.293 49.2024 148.11 48.8367 150.658 48.11V56.4808ZM168.853 47.381C168.853 49.5633 167.76 51.748 165.212 51.748C163.393 51.748 162.664 51.019 162.664 49.5633C162.664 47.0177 165.212 46.6543 167.758 46.6543H168.85L168.853 47.381ZM154.661 40.8316C157.209 39.7392 160.121 39.0126 162.666 39.0126C165.578 39.0126 168.853 39.3759 168.853 42.2873C167.76 42.2873 165.941 41.924 164.485 41.924C158.663 41.924 152.111 43.3772 152.111 50.6581C152.111 55.7518 156.478 57.9317 160.845 57.9317C164.12 57.9317 167.031 56.4784 168.487 53.9328H168.85V57.2027H179.403V42.6506C179.403 33.9165 171.398 32.8265 164.849 32.8265C160.482 32.8265 158.297 33.1898 154.659 34.2798L154.661 40.8316ZM183.046 33.5531H193.963V37.5569H194.326C195.418 34.2822 198.693 32.8265 201.968 32.8265C208.154 32.8265 210.336 36.1012 210.336 40.8316V57.2051H198.693V43.3772C198.693 42.2849 198.693 40.1025 196.874 40.1025C194.692 40.1025 194.692 42.2873 194.692 43.3772V57.2051H183.046V33.5531ZM229.989 47.381C229.989 49.5633 228.899 51.748 226.351 51.748C224.532 51.748 223.803 51.019 223.803 49.5633C223.803 47.0177 226.351 46.6543 228.899 46.6543H229.989V47.381ZM215.796 40.8316C218.344 39.7392 221.255 39.0126 223.803 39.0126C226.712 39.0126 229.989 39.3759 229.989 42.2873C228.899 42.2873 227.08 41.924 225.622 41.924C219.799 41.924 213.25 43.3772 213.25 50.6581C213.25 55.7518 217.615 57.9317 221.982 57.9317C225.256 57.9317 228.17 56.4784 229.621 53.9328H229.987V57.2027H240.542V42.6506C240.542 33.9165 232.535 32.8265 225.985 32.8265C221.618 32.8265 219.434 33.1898 215.796 34.2798V40.8316ZM260.919 45.1986C260.919 47.3834 260.559 49.9315 258.01 49.9315C255.458 49.9315 255.097 47.3834 255.097 44.8353C255.097 42.2873 255.458 40.1049 258.01 40.1049C260.559 40.1025 260.919 42.2873 260.919 45.1986ZM272.204 57.2051V23H260.559V36.4669C258.735 33.9189 256.555 32.8265 253.28 32.8265C246.002 32.8265 243.093 38.2859 243.093 44.8353C243.093 51.7505 246.002 57.9341 253.643 57.9341C257.286 57.9341 259.832 56.4808 261.285 52.8404H261.651V57.2051H272.204ZM291.852 47.381C291.852 49.5633 290.762 51.748 288.578 51.748C286.759 51.748 285.669 51.019 285.669 49.5633C285.669 47.0177 288.578 46.6543 290.762 46.6543H291.852V47.381ZM278.022 40.8316C280.207 39.7392 283.12 39.0126 286.029 39.0126C288.943 39.0126 291.852 39.3759 291.852 42.2873C291.123 42.2873 289.304 41.924 287.488 41.924C281.665 41.924 275.113 43.3772 275.113 50.6581C275.113 55.7518 279.478 57.9317 283.845 57.9317C287.119 57.9317 290.033 56.4784 291.852 53.9328V57.2027H302.408V42.6506C302.408 33.9165 294.4 32.8265 287.848 32.8265C283.484 32.8265 281.297 33.1898 278.022 34.2798V40.8316ZM350.077 35.0088H341.341V57.5708H328.974V35.0088H318.418V25.5481H350.077V35.0088ZM362.452 33.5531V39.0126C363.905 35.7379 366.09 32.8265 369.726 32.8265C370.455 32.8265 371.181 33.1898 371.91 33.1898V42.6506C371.181 42.6506 370.091 42.2873 369.001 42.2873C366.088 42.2873 363.179 45.1987 363.179 48.8367V57.5732H351.533V33.5556L362.452 33.5531ZM401.753 57.5708H390.837V53.2061H390.471C389.381 56.8442 386.106 57.9341 382.829 57.9341C376.646 57.9341 374.458 54.6594 374.458 50.2924V33.5531H386.104V47.3834C386.104 48.8367 386.104 50.6605 387.923 50.6605C390.108 50.6605 390.108 48.8367 390.108 47.3834V33.5531H401.753V57.5708ZM405.028 49.929C407.208 51.019 410.851 52.109 413.76 52.109C415.579 52.109 417.763 51.748 417.763 50.2899C417.763 47.381 404.662 50.2899 404.662 41.1925C404.662 34.2774 412.304 32.8217 417.763 32.8217C420.677 32.8217 423.586 33.5483 426.495 33.914V40.4634C423.947 39.7368 421.767 39.0078 418.853 39.0078C417.034 39.0078 415.215 39.3711 415.215 40.8268C415.215 43.0091 428.316 40.4635 428.316 49.1976C428.316 56.1103 420.675 57.9293 415.215 57.9293C411.941 57.9293 408.303 57.5684 405.028 56.476V49.929ZM433.413 33.5531V28.0937L444.692 24.4557V33.5531H450.154V40.4683H444.692V47.0201C444.692 49.2048 445.782 50.2948 447.24 50.2948C448.335 50.2948 449.425 50.2948 450.154 49.9339V56.8466C447.551 57.5906 444.854 57.9576 442.147 57.9365C436.324 57.9365 433.415 55.0276 433.415 48.8391V40.4707H429.045V33.5556L433.413 33.5531Z" fill="#262626"/>
</svg>
