<svg width="16" height="16" viewBox="0 0 16 16" fill="none" xmlns="http://www.w3.org/2000/svg">
  <path d="M13.656 2.34229C10.5313 -0.781425 5.46601 -0.780675 2.34229 2.34401C-0.781425 5.46869 -0.780675 10.534 2.34401 13.6577C5.4687 16.7814 10.534 16.7807 13.6577 13.656C15.1579 12.1553 16.0005 10.1202 16 7.99828C15.9996 5.87672 15.1564 3.84223 13.656 2.34229ZM12.1157 11.1439C12.1154 11.1442 12.115 11.1446 12.1147 11.145V11.1423L11.7093 11.545C11.1851 12.0758 10.4216 12.2942 9.69597 12.121C8.96488 11.9253 8.26988 11.6138 7.63732 11.1983C7.04963 10.8227 6.50501 10.3837 6.01332 9.88897C5.56091 9.43987 5.15448 8.94675 4.79998 8.41697C4.41223 7.84691 4.10532 7.22591 3.88798 6.57163C3.63882 5.803 3.84529 4.9596 4.42132 4.39297L4.89598 3.91832C5.02795 3.78576 5.24238 3.78529 5.37491 3.91726C5.37526 3.9176 5.37563 3.91794 5.37598 3.91832L6.87463 5.41697C7.00719 5.54894 7.00766 5.76338 6.87569 5.89591C6.87535 5.89625 6.87501 5.8966 6.87463 5.89697L5.99463 6.77697C5.74213 7.02672 5.71038 7.42359 5.91998 7.71031C6.23826 8.14713 6.59048 8.55816 6.97332 8.93966C7.40016 9.36834 7.86419 9.75831 8.35997 10.105C8.64644 10.3048 9.03482 10.2711 9.28263 10.025L10.1333 9.161C10.2653 9.02844 10.4797 9.02797 10.6122 9.15994C10.6126 9.16028 10.6129 9.16062 10.6133 9.161L12.1146 10.665C12.2472 10.7969 12.2477 11.0113 12.1157 11.1439Z" fill="black"/>
</svg>
